<svg width="354" height="354" viewBox="0 0 354 354" fill="none" xmlns="http://www.w3.org/2000/svg">
<path d="M220.748 25.3501C220.748 25.3501 253.737 78.4817 264.762 97.3651C264.94 97.6727 264.865 98.0791 264.599 98.3443C264.265 98.6786 263.762 98.7146 263.43 98.3803L206.589 38.9335L220.748 25.3501Z" fill="#CF163E"/>
<path d="M123.57 218.959C133.218 198.547 146.233 180.08 162.338 163.974C168.464 157.851 174.93 152.177 181.713 146.964V189.032L123.57 218.959ZM90 257.81L181.712 211.121V317.851L202.38 345V200.49L214.933 194.033C220.715 191.128 226.138 187.263 230.963 182.436C254.869 158.532 255.249 119.948 232.023 95.6289L184.644 46.2669C182.755 44.2481 181.764 41.6053 181.851 38.8271C181.938 36.0309 183.107 33.4336 185.141 31.5171C189.336 27.5725 196.019 27.8382 199.963 32.0294L206.589 38.9359L220.748 25.3496C204.019 3.65434 183.55 6.37846 171.694 17.2319C165.849 22.7342 162.492 30.1856 162.238 38.2126C161.985 46.2518 164.881 53.899 170.386 59.7479L170.45 59.8171L218.076 109.429C233.739 126.098 233.425 152.313 217.133 168.605C214.593 171.145 211.808 173.297 208.859 175.062L202.38 178.394V110.966C182.565 121.178 164.495 134.297 148.565 150.231C128.723 170.07 113.145 193.178 102.261 218.911C96.9216 231.532 92.8294 244.528 90 257.81Z" fill="#CF163E"/>
</svg>
